<?xml version="1.0" encoding="UTF-8"?> <svg xmlns="http://www.w3.org/2000/svg" width="92" height="105" viewBox="0 0 92 105" fill="none"><path d="M74.5757 67.275L77.6857 61.385C77.9083 60.9677 78.0111 60.4972 77.9829 60.0259C77.9546 59.5546 77.7964 59.1008 77.5257 58.715C66.1057 42.435 54.8357 26.3916 43.7157 10.585C43.509 10.2916 43.2957 10.105 43.0757 10.025C42.749 9.90503 42.4423 9.9184 42.1557 10.0651L20.8157 14.6851C20.2557 13.1517 20.3823 11.8084 21.1957 10.655C21.749 9.86837 22.7957 9.25829 24.3357 8.82495C34.4223 6.01162 44.8723 3.25506 55.6857 0.555057C56.124 0.446109 56.5847 0.472936 57.0064 0.631961C57.4281 0.790987 57.7906 1.07453 58.0457 1.44495L72.7257 22.6851C72.9257 22.9717 73.0523 23.285 73.1057 23.625C73.4857 26.325 75.2457 26.175 76.5457 27.905C82.8057 36.225 87.4557 43.655 90.9657 48.465C92.0457 49.945 91.9723 51.315 90.7457 52.575C86.5323 56.8883 82.5623 61.415 78.8357 66.155C78.6223 66.4217 78.3456 66.5551 78.0056 66.5551C76.8256 66.5417 75.6823 66.7817 74.5757 67.275ZM73.2257 26.755C73.2257 26.1927 73.0023 25.6536 72.6047 25.256C72.2072 24.8584 71.6679 24.635 71.1057 24.635C70.5434 24.635 70.0042 24.8584 69.6066 25.256C69.209 25.6536 68.9857 26.1927 68.9857 26.755C68.9857 27.3173 69.209 27.8565 69.6066 28.254C70.0042 28.6516 70.5434 28.875 71.1057 28.875C71.6679 28.875 72.2072 28.6516 72.6047 28.254C73.0023 27.8565 73.2257 27.3173 73.2257 26.755Z" fill="#005280" fill-opacity="0.196"></path><path d="M42.1559 10.0649C42.1692 10.6649 42.0226 11.2349 41.7159 11.7749C39.6892 15.3882 37.6059 18.8949 35.4659 22.2949L14.0659 26.8749L20.8159 14.6849L42.1559 10.0649Z" fill="#25B7DE"></path><path d="M74.5758 67.2748L71.0458 72.8648L35.4658 22.2949C37.6058 18.8949 39.6892 15.3882 41.7158 11.7748C42.0225 11.2348 42.1692 10.6649 42.1558 10.0649C42.4425 9.9182 42.7491 9.90483 43.0758 10.0248C43.2958 10.1048 43.5092 10.2914 43.7158 10.5848C54.8358 26.3914 66.1058 42.4348 77.5258 58.7148C77.7965 59.1006 77.9548 59.5544 77.983 60.0257C78.0113 60.497 77.9084 60.9675 77.6858 61.3848L74.5758 67.2748Z" fill="#8AD6EE"></path><path d="M35.4659 22.2949L71.0459 72.8649L59.0259 87.6948L46.3259 103.605C46.186 103.783 46.0062 103.926 45.8001 104.025C45.5939 104.124 45.3668 104.175 45.1359 104.175H0.965926C0.865116 104.175 0.765506 104.153 0.674117 104.111C0.582728 104.068 0.501756 104.007 0.436934 103.931C0.372112 103.855 0.324997 103.765 0.298903 103.669C0.27281 103.573 0.268372 103.473 0.285903 103.375L5.26591 75.0249L14.0659 26.8749L35.4659 22.2949Z" fill="#D3EEF9"></path></svg> 